<?xml version="1.0" encoding="UTF-8" standalone="no"?>
<!-- Created with Inkscape (http://www.inkscape.org/) -->

<svg
   xmlns:dc="http://purl.org/dc/elements/1.1/"
   xmlns:cc="http://creativecommons.org/ns#"
   xmlns:rdf="http://www.w3.org/1999/02/22-rdf-syntax-ns#"
   xmlns:svg="http://www.w3.org/2000/svg"
   xmlns="http://www.w3.org/2000/svg"
   xmlns:sodipodi="http://sodipodi.sourceforge.net/DTD/sodipodi-0.dtd"
   xmlns:inkscape="http://www.inkscape.org/namespaces/inkscape"
   width="100"
   height="100"
   viewBox="0 0 26.458333 26.458334"
   version="1.1"
   id="svg8"
   inkscape:version="0.92.5 (2060ec1f9f, 2020-04-08)"
   sodipodi:docname="bishop-b.svg">
  <defs
     id="defs2" />
  <sodipodi:namedview
     id="base"
     pagecolor="#ffffff"
     bordercolor="#666666"
     borderopacity="1.0"
     inkscape:pageopacity="0.0"
     inkscape:pageshadow="2"
     inkscape:zoom="2.8"
     inkscape:cx="70.511774"
     inkscape:cy="30.918884"
     inkscape:document-units="mm"
     inkscape:current-layer="layer1"
     showgrid="false"
     units="px"
     showguides="true"
     inkscape:guide-bbox="true"
     inkscape:window-width="1366"
     inkscape:window-height="704"
     inkscape:window-x="0"
     inkscape:window-y="202"
     inkscape:window-maximized="1">
    <sodipodi:guide
       position="0,2.6458333"
       orientation="0,1"
       id="guide851"
       inkscape:locked="false"
       inkscape:label=""
       inkscape:color="rgb(0,0,255)" />
    <sodipodi:guide
       position="0,23.8125"
       orientation="0,1"
       id="guide853"
       inkscape:locked="false"
       inkscape:label=""
       inkscape:color="rgb(0,0,255)" />
  </sodipodi:namedview>
  <metadata
     id="metadata5">
    <rdf:RDF>
      <cc:Work
         rdf:about="">
        <dc:format>image/svg+xml</dc:format>
        <dc:type
           rdf:resource="http://purl.org/dc/dcmitype/StillImage" />
        <dc:title></dc:title>
      </cc:Work>
    </rdf:RDF>
  </metadata>
  <g
     inkscape:label="Layer 1"
     inkscape:groupmode="layer"
     id="layer1"
     transform="translate(0,-270.54165)">
    <path
       inkscape:connector-curvature="0"
       style="fill:#000000;stroke-width:0.06073663"
       d="m 8.585756,294.44837 -0.3268567,-0.0942 v -0.33232 -0.33233 l 0.3431981,-0.11258 c 0.3672735,-0.12041 0.4213483,-0.18131 0.2121054,-0.23862 -0.1941332,-0.0531 -0.5139157,-0.30135 -0.6230249,-0.4835 -0.1359772,-0.22697 -0.1185116,-0.55347 0.043615,-0.81515 0.076624,-0.12366 0.3781536,-0.44175 0.6700581,-0.7068 0.544803,-0.49469 0.951985,-1.0567 1.0178784,-1.40492 0.02931,-0.15494 0.08912,-0.21739 0.2977456,-0.31084 0.319122,-0.14288 0.516071,-0.43685 0.871757,-1.30102 0.756027,-1.8368 0.875,-3.67179 0.362769,-5.59522 l -0.107498,-0.40361 -0.552664,-0.0196 c -0.620692,-0.022 -0.738233,-0.0893 -0.738233,-0.42221 0,-0.21297 0.190667,-0.3592 0.468385,-0.3592 0.162453,0 0.179547,-0.0207 0.19791,-0.23984 l 0.02009,-0.23982 0.375885,-0.017 0.375886,-0.0169 v -0.50036 c 0,-0.47972 -0.0075,-0.5052 -0.179773,-0.61793 -0.167821,-0.10981 -0.172145,-0.12268 -0.06504,-0.19453 0.107401,-0.072 0.09624,-0.11144 -0.174533,-0.61498 -0.522704,-0.97215 -0.71285,-1.52443 -0.743676,-2.15999 -0.02599,-0.53586 -0.01673,-0.58695 0.171041,-0.94444 0.109192,-0.20788 0.330361,-0.52584 0.4915,-0.70662 0.357444,-0.40099 1.131788,-1.03088 1.593553,-1.29627 0.323088,-0.1857 0.336171,-0.20248 0.245141,-0.31467 -0.150884,-0.18595 -0.119652,-0.40783 0.07609,-0.54075 0.233138,-0.15836 0.514744,-0.14973 0.713245,0.0215 0.18302,0.15804 0.202947,0.29929 0.06447,0.45733 -0.138193,0.15771 -0.122992,0.21395 0.07964,0.29465 0.09888,0.0394 0.261768,0.12985 0.361988,0.20098 l 0.182219,0.12936 -0.681132,1.38386 c -0.810641,1.64697 -0.781949,1.57476 -0.699843,1.7612 0.05277,0.11975 0.107954,0.14859 0.285529,0.14859 0.210964,0 0.229762,-0.0181 0.452583,-0.43734 0.127864,-0.24053 0.4461,-0.87538 0.707192,-1.41075 0.2611,-0.53539 0.49719,-0.97343 0.524657,-0.97343 0.114015,0 0.803075,0.79217 1.025823,1.17933 0.314123,0.54601 0.350091,0.96455 0.143993,1.67567 -0.138242,0.47698 -0.536073,1.35796 -0.794743,1.7599 -0.131725,0.20469 -0.154143,0.35097 -0.05377,0.35097 0.122161,0 0.06607,0.21793 -0.06537,0.25393 -0.118576,0.0324 -0.130747,0.0854 -0.130747,0.56812 v 0.53228 h 0.313782 c 0.369799,0 0.470674,0.0689 0.470674,0.32166 0,0.16195 0.02172,0.18622 0.166403,0.18622 0.251143,0 0.510549,0.25008 0.456588,0.44018 -0.07543,0.26566 -0.194285,0.31936 -0.755671,0.34138 -0.286568,0.0114 -0.521063,0.0368 -0.521089,0.0567 -2.9e-5,0.02 -0.04642,0.22681 -0.103099,0.45958 -0.409165,1.68049 -0.391231,3.03598 0.06044,4.5712 0.351488,1.19467 0.802153,2.06278 1.148277,2.21192 0.259445,0.11177 0.330215,0.19189 0.331603,0.3753 0.0021,0.24831 0.458497,0.87769 0.988565,1.36257 0.623159,0.57004 0.777611,0.80234 0.77703,1.1687 -8.64e-4,0.37645 -0.290411,0.71923 -0.702308,0.83062 -0.199803,0.0541 -0.185107,0.13506 0.03267,0.1801 0.09888,0.0205 0.262096,0.073 0.362708,0.11681 0.172321,0.075 0.181805,0.0983 0.163429,0.40121 l -0.01949,0.32161 -0.326857,0.0942 c -0.292124,0.0842 -0.785301,0.0942 -4.641371,0.0942 -3.85607,0 -4.3492438,-0.01 -4.6413682,-0.0942 z"
       id="path841" />
  </g>
</svg>
