<?xml version="1.0" encoding="UTF-8" standalone="no"?>
<!-- Created with Inkscape (http://www.inkscape.org/) -->

<svg
   xmlns:dc="http://purl.org/dc/elements/1.1/"
   xmlns:cc="http://creativecommons.org/ns#"
   xmlns:rdf="http://www.w3.org/1999/02/22-rdf-syntax-ns#"
   xmlns:svg="http://www.w3.org/2000/svg"
   xmlns="http://www.w3.org/2000/svg"
   xmlns:sodipodi="http://sodipodi.sourceforge.net/DTD/sodipodi-0.dtd"
   xmlns:inkscape="http://www.inkscape.org/namespaces/inkscape"
   width="100"
   height="100"
   viewBox="0 0 26.458333 26.458334"
   version="1.1"
   id="svg8"
   inkscape:version="0.92.5 (2060ec1f9f, 2020-04-08)"
   sodipodi:docname="king-w.svg">
  <defs
     id="defs2" />
  <sodipodi:namedview
     id="base"
     pagecolor="#ffffff"
     bordercolor="#666666"
     borderopacity="1.0"
     inkscape:pageopacity="0.0"
     inkscape:pageshadow="2"
     inkscape:zoom="2.8"
     inkscape:cx="14.343725"
     inkscape:cy="94.234664"
     inkscape:document-units="mm"
     inkscape:current-layer="layer1"
     showgrid="false"
     units="px"
     showguides="true"
     inkscape:guide-bbox="true"
     inkscape:window-width="1366"
     inkscape:window-height="704"
     inkscape:window-x="0"
     inkscape:window-y="202"
     inkscape:window-maximized="1">
    <sodipodi:guide
       position="0,2.6458333"
       orientation="0,1"
       id="guide851"
       inkscape:locked="false"
       inkscape:label=""
       inkscape:color="rgb(0,0,255)" />
    <sodipodi:guide
       position="0,23.8125"
       orientation="0,1"
       id="guide853"
       inkscape:locked="false"
       inkscape:label=""
       inkscape:color="rgb(0,0,255)" />
  </sodipodi:namedview>
  <metadata
     id="metadata5">
    <rdf:RDF>
      <cc:Work
         rdf:about="">
        <dc:format>image/svg+xml</dc:format>
        <dc:type
           rdf:resource="http://purl.org/dc/dcmitype/StillImage" />
        <dc:title></dc:title>
      </cc:Work>
    </rdf:RDF>
  </metadata>
  <g
     inkscape:label="Layer 1"
     inkscape:groupmode="layer"
     id="layer1"
     transform="translate(0,-270.54165)">
    <path
       inkscape:connector-curvature="0"
       style="fill:#808080;stroke-width:0.04641857"
       d="m 9.1052398,294.4465 c -0.2717858,-0.0797 -0.2980202,-0.10971 -0.2990002,-0.34123 -8.567e-4,-0.20471 0.092392,-0.28655 0.4114116,-0.36098 0.2330025,-0.0544 0.2377391,-0.10559 0.015615,-0.16889 -0.5332914,-0.15194 -0.7706408,-0.65196 -0.5282722,-1.11293 0.053442,-0.10161 0.3193687,-0.38447 0.5909516,-0.62851 0.5640845,-0.50687 0.9079294,-0.96488 0.9465774,-1.26087 0.02402,-0.18391 0.04046,-0.20257 0.256054,-0.29061 0.224736,-0.0918 0.234464,-0.10409 0.396395,-0.5035 0.364859,-0.89983 0.675988,-2.12661 0.831534,-3.27874 0.101742,-0.75358 0.102191,-2.66575 8.24e-4,-3.40477 -0.117831,-0.85892 -0.214483,-1.29939 -0.295815,-1.34812 -0.02918,-0.0174 -0.199185,-0.0288 -0.377795,-0.025 -0.374284,0.007 -0.534832,-0.0501 -0.581136,-0.20928 -0.05941,-0.20432 0.03326,-0.3312 0.293879,-0.40241 0.204371,-0.0558 0.236808,-0.0804 0.237034,-0.17976 4.95e-4,-0.22057 0.04115,-0.25151 0.330352,-0.25151 h 0.269439 v -0.42626 c 0,-0.38996 -0.0085,-0.42815 -0.09992,-0.44878 -0.133321,-0.0302 -0.130778,-0.18888 0.0036,-0.2257 0.05694,-0.0156 0.09333,-0.051 0.08085,-0.0785 -0.01247,-0.0275 -0.328858,-0.68291 -0.703064,-1.45646 -0.374203,-0.77353 -0.680371,-1.44883 -0.680371,-1.50064 0,-0.0518 0.05519,-0.14182 0.122637,-0.20005 0.12184,-0.10522 0.128967,-0.10584 1.099137,-0.10584 0.537078,0 0.976506,-0.01 0.976506,-0.0233 0,-0.0128 -0.04833,-0.0797 -0.107384,-0.1487 -0.102826,-0.12004 -0.103759,-0.13014 -0.02206,-0.23777 0.04692,-0.0618 0.11773,-0.12314 0.157344,-0.13626 0.105939,-0.0351 0.08777,-0.0879 -0.04038,-0.11742 -0.252097,-0.058 -0.254685,-0.077 -0.06577,-0.48136 0.098,-0.2098 0.178178,-0.39708 0.178178,-0.41618 0,-0.0584 -0.156802,-0.0383 -0.574549,0.0737 -0.219828,0.0589 -0.405308,0.10721 -0.412177,0.10721 -0.0068,1e-5 -0.01249,-0.32992 -0.01249,-0.73316 0,-0.40325 0.01686,-0.73276 0.03746,-0.73226 0.0206,5e-4 0.227416,0.0491 0.459572,0.10783 0.232154,0.0587 0.449876,0.10696 0.483824,0.10696 0.03944,0 -0.0092,-0.14657 -0.134827,-0.40606 -0.108119,-0.22327 -0.196562,-0.42315 -0.196562,-0.44411 0,-0.0486 0.262007,-0.12981 0.539806,-0.16746 0.173325,-0.0235 0.208115,-0.0426 0.179267,-0.0987 -0.01968,-0.0382 -0.04592,-0.14387 -0.05832,-0.23467 -0.01867,-0.1369 0.0013,-0.18661 0.117357,-0.29111 0.200967,-0.18108 0.462736,-0.17655 0.645728,0.0112 0.134273,0.13775 0.145183,0.24274 0.05121,0.49286 -0.03031,0.0807 -0.0097,0.0943 0.182144,0.11991 0.289732,0.0387 0.541067,0.11107 0.541067,0.15568 0,0.0201 -0.07868,0.19742 -0.174862,0.39427 -0.09618,0.19685 -0.174863,0.3843 -0.174863,0.41656 0,0.0675 0.15486,0.0462 0.59953,-0.0823 0.15113,-0.0437 0.302886,-0.08 0.337235,-0.0804 0.04749,-8.3e-4 0.06245,0.16945 0.06245,0.71053 0,0.82503 0.04677,0.77477 -0.574303,0.61705 -0.204794,-0.052 -0.386936,-0.0819 -0.404758,-0.0666 -0.01782,0.0153 0.04904,0.20362 0.148583,0.41832 0.09954,0.21469 0.180987,0.39755 0.180987,0.40638 0,0.009 -0.07307,0.0411 -0.162372,0.0718 -0.221089,0.076 -0.219278,0.0715 -0.07008,0.17283 0.147548,0.10024 0.170114,0.23999 0.05917,0.36659 -0.04035,0.0461 -0.07406,0.0982 -0.07495,0.11605 -8.84e-4,0.0178 0.436817,0.0324 0.972647,0.0324 0.907621,0 0.981066,0.006 1.074156,0.0863 0.139879,0.12078 0.126479,0.32469 -0.04433,0.67475 -0.07934,0.16259 -0.329173,0.68377 -0.555186,1.15817 -0.226013,0.47441 -0.468143,0.97503 -0.538068,1.1125 l -0.127134,0.24996 0.10777,0.0651 c 0.13501,0.0817 0.138494,0.17544 0.0079,0.21122 -0.09108,0.0249 -0.09993,0.0653 -0.09993,0.45574 v 0.42838 h 0.248048 c 0.268929,0 0.351482,0.0641 0.351482,0.2727 0,0.0865 0.03146,0.11094 0.172699,0.13381 0.171101,0.0278 0.376871,0.19636 0.376871,0.30888 0,0.11331 -0.117458,0.27553 -0.21982,0.30358 -0.0576,0.0158 -0.257266,0.0263 -0.443697,0.0233 -0.403635,-0.006 -0.386199,-0.0287 -0.501644,0.63972 -0.156132,0.90395 -0.192708,1.37903 -0.190918,2.47983 0.0028,1.73917 0.256366,3.20528 0.816683,4.72246 0.206523,0.5592 0.259955,0.63738 0.489968,0.71682 0.167116,0.0578 0.201019,0.0915 0.225983,0.22542 0.07341,0.39379 0.337412,0.7532 0.988416,1.34564 0.537937,0.48954 0.633616,0.63939 0.633616,0.99222 0,0.20419 -0.02542,0.29568 -0.111319,0.40065 -0.149636,0.18286 -0.281218,0.2747 -0.475719,0.33206 -0.0893,0.0263 -0.162373,0.0633 -0.162373,0.0823 0,0.0189 0.118029,0.0709 0.262293,0.1158 l 0.262292,0.0815 v 0.25825 0.25825 l -0.2498,0.072 c -0.225062,0.0648 -0.635804,0.0718 -4.146743,0.07 -3.3612652,-8.8e-4 -3.9278451,-0.0112 -4.1217642,-0.068 z"
       id="path845" />
  </g>
</svg>
