<?xml version="1.0" encoding="UTF-8" standalone="no"?>
<!-- Created with Inkscape (http://www.inkscape.org/) -->

<svg
   xmlns:dc="http://purl.org/dc/elements/1.1/"
   xmlns:cc="http://creativecommons.org/ns#"
   xmlns:rdf="http://www.w3.org/1999/02/22-rdf-syntax-ns#"
   xmlns:svg="http://www.w3.org/2000/svg"
   xmlns="http://www.w3.org/2000/svg"
   xmlns:sodipodi="http://sodipodi.sourceforge.net/DTD/sodipodi-0.dtd"
   xmlns:inkscape="http://www.inkscape.org/namespaces/inkscape"
   width="100"
   height="100"
   viewBox="0 0 26.458333 26.458334"
   version="1.1"
   id="svg8"
   inkscape:version="0.92.5 (2060ec1f9f, 2020-04-08)"
   sodipodi:docname="knight-b.svg">
  <defs
     id="defs2" />
  <sodipodi:namedview
     id="base"
     pagecolor="#ffffff"
     bordercolor="#666666"
     borderopacity="1.0"
     inkscape:pageopacity="0.0"
     inkscape:pageshadow="2"
     inkscape:zoom="2.8"
     inkscape:cx="70.511774"
     inkscape:cy="30.918884"
     inkscape:document-units="mm"
     inkscape:current-layer="layer1"
     showgrid="false"
     units="px"
     showguides="true"
     inkscape:guide-bbox="true"
     inkscape:window-width="1366"
     inkscape:window-height="704"
     inkscape:window-x="0"
     inkscape:window-y="202"
     inkscape:window-maximized="1">
    <sodipodi:guide
       position="0,2.6458333"
       orientation="0,1"
       id="guide851"
       inkscape:locked="false"
       inkscape:label=""
       inkscape:color="rgb(0,0,255)" />
    <sodipodi:guide
       position="0,23.8125"
       orientation="0,1"
       id="guide853"
       inkscape:locked="false"
       inkscape:label=""
       inkscape:color="rgb(0,0,255)" />
  </sodipodi:namedview>
  <metadata
     id="metadata5">
    <rdf:RDF>
      <cc:Work
         rdf:about="">
        <dc:format>image/svg+xml</dc:format>
        <dc:type
           rdf:resource="http://purl.org/dc/dcmitype/StillImage" />
        <dc:title></dc:title>
      </cc:Work>
    </rdf:RDF>
  </metadata>
  <g
     inkscape:label="Layer 1"
     inkscape:groupmode="layer"
     id="layer1"
     transform="translate(0,-270.54165)">
    <path
       inkscape:connector-curvature="0"
       style="fill:#000000;stroke-width:0.06897622"
       d="m 8.3164016,294.3541 -0.3340783,-0.10732 -0.022148,-0.36346 c -0.020853,-0.34212 -0.00999,-0.36878 0.1855993,-0.45386 0.1142545,-0.0498 0.2996243,-0.10935 0.4119119,-0.13266 0.2816323,-0.0583 0.2565,-0.11824 -0.111368,-0.26578 -0.4441993,-0.17818 -0.6495983,-0.47043 -0.6495983,-0.92451 0,-0.41131 0.1247455,-0.6134 0.8524032,-1.38091 0.4942992,-0.52137 0.7007381,-0.87766 0.812191,-1.40177 0.07764,-0.3651 0.08985,-0.37969 0.406371,-0.48634 0.3744026,-0.12619 0.5283126,-0.27405 0.4734946,-0.45501 -0.05088,-0.168 -0.14286,-0.21063 -0.5399826,-0.25069 l -0.33408,-0.0337 -0.3155184,-0.54325 c -0.1735373,-0.29878 -0.31552,-0.59837 -0.31552,-0.66576 0,-0.19567 0.7646044,-1.49667 1.229145,-2.09144 0.550183,-0.70442 1.011523,-1.21352 1.887357,-2.08278 0.390654,-0.38773 0.772399,-0.78907 0.848323,-0.89189 0.160104,-0.21682 0.194325,-0.63825 0.06115,-0.75321 -0.128669,-0.11102 -0.934645,-0.1434 -1.464179,-0.0588 -0.731356,0.11694 -1.070251,0.30036 -1.4308026,0.77464 -0.17696,0.23278 -0.389858,0.43494 -0.482557,0.45824 -0.3162826,0.0794 -1.0609036,0.0574 -1.2086204,-0.0359 -0.1407874,-0.0888 -0.1404358,-0.0958 0.020908,-0.42549 0.09022,-0.18429 0.147763,-0.35786 0.1278911,-0.38563 -0.019872,-0.0278 -0.2295933,0.0111 -0.4660399,0.0847 -0.4887336,0.15357 -0.6499462,0.12693 -0.7633977,-0.12693 -0.1102209,-0.24649 -0.2287069,-1.38598 -0.1600858,-1.53967 0.030937,-0.0694 0.3624726,-0.41128 0.7367333,-0.75994 0.8023589,-0.7475 1.1581372,-1.13215 1.60998,-1.74067 0.1830114,-0.24647 0.4906024,-0.55971 0.683521,-0.69607 0.784628,-0.55466 0.730402,-0.49678 0.62654,-0.66864 -0.0519,-0.0858 -0.248484,-0.31005 -0.436874,-0.4982 -0.7459046,-0.74501 -0.838659,-0.96224 -0.4675046,-1.09496 0.3371016,-0.12045 0.8245566,-0.009 2.0923296,0.47658 0.40326,0.15468 0.982259,0.31571 1.352085,0.3762 0.983066,0.16079 1.54757,0.35457 1.701896,0.5843 0.216856,0.32279 0.509529,1.30239 0.509529,1.70543 0,0.20755 0.03212,0.37735 0.07138,0.37735 0.12371,0 0.222137,-0.46209 0.242777,-1.13964 0.01092,-0.35973 0.04115,-0.65422 0.06707,-0.65441 0.138641,-10e-4 0.88863,0.61537 0.926263,0.76128 0.02378,0.0921 0.07322,0.26855 0.109851,0.3919 0.09385,0.31598 0.08378,1.80987 -0.01443,2.14668 -0.134552,0.46129 -0.03134,0.47622 0.228886,0.0331 0.321628,-0.5477 0.595435,-1.18235 0.595435,-1.38014 0,-0.29608 0.157144,-0.16061 0.459429,0.39629 0.356896,0.65742 0.368046,0.84382 0.09851,1.64648 -0.291204,0.86721 -1.040786,2.0717 -1.520899,2.44396 -0.19876,0.15413 -0.386628,0.42651 -0.218464,0.31675 0.05773,-0.0378 0.305401,-0.18096 0.550393,-0.31823 0.244991,-0.13729 0.778292,-0.53055 1.185114,-0.87378 0.406822,-0.34322 0.748492,-0.61645 0.759268,-0.60714 0.05438,0.047 0.168689,0.96288 0.169984,1.36202 0.0012,0.3865 -0.02803,0.49352 -0.192808,0.70495 -0.645368,0.82802 -1.522175,1.57627 -2.613062,2.22996 -0.306411,0.18354 -0.496878,0.33491 -0.435312,0.34587 0.236865,0.0422 2.138274,-0.50692 2.63953,-0.76219 0.137846,-0.0701 0.269765,-0.1112 0.293143,-0.0908 0.04678,0.0403 -0.161288,0.95807 -0.32531,1.43485 -0.09629,0.27993 -0.14693,0.32407 -0.693087,0.60452 -0.324063,0.16634 -0.779948,0.37536 -1.013077,0.46436 -0.233131,0.089 -0.408014,0.17541 -0.388629,0.19225 0.01939,0.0166 0.265744,-5.4e-4 0.547467,-0.0383 0.960617,-0.12897 1.162907,-0.14451 1.133545,-0.087 -0.392062,0.7685 -0.355156,0.73025 -0.704706,0.73025 -0.306134,0 -0.621896,0.15653 -0.621896,0.30818 0,0.12601 0.226464,0.2978 0.525911,0.39887 0.314704,0.1062 0.327659,0.12174 0.416241,0.49957 0.122822,0.52387 0.359165,0.90677 0.948694,1.53708 0.746756,0.79841 0.902877,1.17581 0.678303,1.63979 -0.107852,0.22281 -0.481486,0.5047 -0.768835,0.58004 -0.09187,0.024 -0.167043,0.0688 -0.167043,0.0992 0,0.0305 0.07516,0.0734 0.167043,0.0955 0.09187,0.022 0.293816,0.0866 0.448763,0.14358 l 0.281723,0.10343 -0.02189,0.3522 -0.02189,0.35222 -0.3712,0.1125 c -0.339779,0.10287 -0.789084,0.11231 -5.308144,0.11083 -4.4322249,-10e-4 -4.9710972,-0.013 -5.2710212,-0.10898 z"
       id="path847" />
  </g>
</svg>
