<?xml version="1.0" encoding="UTF-8" standalone="no"?>
<!-- Created with Inkscape (http://www.inkscape.org/) -->

<svg
   xmlns:dc="http://purl.org/dc/elements/1.1/"
   xmlns:cc="http://creativecommons.org/ns#"
   xmlns:rdf="http://www.w3.org/1999/02/22-rdf-syntax-ns#"
   xmlns:svg="http://www.w3.org/2000/svg"
   xmlns="http://www.w3.org/2000/svg"
   xmlns:sodipodi="http://sodipodi.sourceforge.net/DTD/sodipodi-0.dtd"
   xmlns:inkscape="http://www.inkscape.org/namespaces/inkscape"
   width="100"
   height="100"
   viewBox="0 0 26.458333 26.458334"
   version="1.1"
   id="svg8"
   inkscape:version="0.92.5 (2060ec1f9f, 2020-04-08)"
   sodipodi:docname="queen-b.svg">
  <defs
     id="defs2" />
  <sodipodi:namedview
     id="base"
     pagecolor="#ffffff"
     bordercolor="#666666"
     borderopacity="1.0"
     inkscape:pageopacity="0.0"
     inkscape:pageshadow="2"
     inkscape:zoom="2.8"
     inkscape:cx="70.511774"
     inkscape:cy="30.918884"
     inkscape:document-units="mm"
     inkscape:current-layer="layer1"
     showgrid="false"
     units="px"
     showguides="true"
     inkscape:guide-bbox="true"
     inkscape:window-width="1366"
     inkscape:window-height="704"
     inkscape:window-x="0"
     inkscape:window-y="202"
     inkscape:window-maximized="1">
    <sodipodi:guide
       position="0,2.6458333"
       orientation="0,1"
       id="guide851"
       inkscape:locked="false"
       inkscape:label=""
       inkscape:color="rgb(0,0,255)" />
    <sodipodi:guide
       position="0,23.8125"
       orientation="0,1"
       id="guide853"
       inkscape:locked="false"
       inkscape:label=""
       inkscape:color="rgb(0,0,255)" />
  </sodipodi:namedview>
  <metadata
     id="metadata5">
    <rdf:RDF>
      <cc:Work
         rdf:about="">
        <dc:format>image/svg+xml</dc:format>
        <dc:type
           rdf:resource="http://purl.org/dc/dcmitype/StillImage" />
        <dc:title></dc:title>
      </cc:Work>
    </rdf:RDF>
  </metadata>
  <g
     inkscape:label="Layer 1"
     inkscape:groupmode="layer"
     id="layer1"
     transform="translate(0,-270.54165)">
    <path
       inkscape:connector-curvature="0"
       style="fill:#000000;stroke-width:0.05459279"
       d="m 8.6176601,294.35415 -0.2644153,-0.0849 -0.017515,-0.28768 c -0.016504,-0.27077 -0.00791,-0.29188 0.1468967,-0.35921 0.090429,-0.0394 0.2371415,-0.0865 0.3260185,-0.105 0.2167184,-0.0448 0.2037537,-0.11306 -0.03437,-0.18092 -0.3334842,-0.095 -0.6854175,-0.50229 -0.6854175,-0.79323 0,-0.32521 0.1424023,-0.54694 0.6467064,-1.00692 0.2772174,-0.25286 0.5883484,-0.55378 0.6914041,-0.66871 0.244817,-0.27303 0.5420662,-0.81897 0.5421232,-0.99569 3.5e-5,-0.10426 0.02882,-0.13941 0.1142848,-0.13941 0.245859,0 0.413087,-0.21236 0.656074,-0.83314 0.643196,-1.64322 0.994148,-3.47191 0.990618,-5.16179 -0.0019,-0.90331 -0.0739,-1.57732 -0.298265,-2.79177 l -0.129017,-0.69835 H 10.84162 c -0.382826,0 -0.481134,-0.0173 -0.578686,-0.10148 -0.257604,-0.22238 -0.08819,-0.5556 0.30945,-0.60867 0.176007,-0.0236 0.191328,-0.0412 0.20805,-0.24069 0.0191,-0.22772 0.04693,-0.24517 0.443949,-0.27798 l 0.168207,-0.0147 -0.0016,-0.41955 c -0.0016,-0.37719 -0.01549,-0.4293 -0.138829,-0.5163 -0.154809,-0.10925 -0.108794,-0.18651 0.127245,-0.21378 0.142227,-0.0164 0.146463,-0.0281 0.133235,-0.36869 -0.03007,-0.77432 -0.392791,-1.43434 -1.139141,-2.07291 -0.287001,-0.24556 -0.521817,-0.46656 -0.521817,-0.49113 0,-0.0898 0.226691,-0.10266 0.574625,-0.0327 0.196046,0.0395 0.386889,0.088 0.424089,0.10793 0.0372,0.0199 0.125181,-0.009 0.195497,-0.0631 0.07032,-0.0545 0.173342,-0.11305 0.228935,-0.1299 0.05559,-0.0168 0.11821,-0.0944 0.139151,-0.17242 0.110624,-0.41152 0.650705,-0.91427 1.144914,-1.06579 l 0.279586,-0.0857 -0.115398,-0.19524 c -0.115208,-0.19496 -0.115208,-0.1955 0.0061,-0.365 0.139986,-0.1955 0.220062,-0.23052 0.527257,-0.23052 0.41848,0 0.666764,0.36932 0.4379,0.65139 -0.109965,0.13546 -0.126191,0.11876 0.221479,0.22984 0.51298,0.16401 0.968335,0.62856 1.187083,1.21107 0.02011,0.0536 0.09229,0.0887 0.182075,0.0887 0.09304,0 0.148741,0.0286 0.148741,0.076 0,0.0817 0.175526,0.10368 0.267356,0.0334 0.116613,-0.0892 0.720855,-0.16871 0.845274,-0.1113 0.110668,0.0511 0.07936,0.0893 -0.428689,0.52299 -0.798263,0.68141 -1.1455,1.29546 -1.171034,2.0709 -0.01201,0.36513 -0.0085,0.37556 0.134539,0.39209 0.247507,0.0286 0.275082,0.10032 0.09422,0.24509 -0.14983,0.11994 -0.162934,0.15623 -0.130394,0.36118 0.01992,0.12535 0.03619,0.30453 0.03619,0.39828 0,0.15195 0.01751,0.17052 0.161585,0.17113 0.318987,10e-4 0.426005,0.0526 0.426005,0.20397 0,0.23945 0.05577,0.30257 0.267368,0.30257 0.355625,0 0.51067,0.38273 0.24298,0.59982 -0.113362,0.092 -0.205671,0.11027 -0.554737,0.11027 -0.230314,0 -0.435132,0.0229 -0.455161,0.0508 -0.05366,0.075 -0.180614,0.76019 -0.383314,2.06886 -0.07526,0.48592 -0.07344,2.23888 0.0031,2.82226 0.198584,1.51687 0.569022,2.92358 1.064867,4.04376 0.15489,0.34992 0.193827,0.3959 0.39355,0.46489 0.196082,0.0677 0.229354,0.10529 0.288377,0.32607 0.101998,0.38145 0.458175,0.84988 1.059822,1.39384 0.762961,0.6898 0.914861,1.02583 0.659236,1.45837 -0.121636,0.20581 -0.404271,0.42054 -0.632198,0.48031 -0.204563,0.0536 -0.159284,0.10822 0.176278,0.21228 l 0.308482,0.0958 v 0.30372 0.30373 l -0.293789,0.0846 c -0.263947,0.0761 -0.732658,0.0845 -4.612562,0.0836 -3.8929539,-10e-4 -4.3448412,-0.0102 -4.5831835,-0.0861 z"
       id="path843" />
  </g>
</svg>
