<?xml version="1.0" encoding="UTF-8" standalone="no"?>
<!-- Created with Inkscape (http://www.inkscape.org/) -->

<svg
   xmlns:dc="http://purl.org/dc/elements/1.1/"
   xmlns:cc="http://creativecommons.org/ns#"
   xmlns:rdf="http://www.w3.org/1999/02/22-rdf-syntax-ns#"
   xmlns:svg="http://www.w3.org/2000/svg"
   xmlns="http://www.w3.org/2000/svg"
   xmlns:sodipodi="http://sodipodi.sourceforge.net/DTD/sodipodi-0.dtd"
   xmlns:inkscape="http://www.inkscape.org/namespaces/inkscape"
   width="100"
   height="100"
   viewBox="0 0 26.458333 26.458334"
   version="1.1"
   id="svg8"
   inkscape:version="0.92.5 (2060ec1f9f, 2020-04-08)"
   sodipodi:docname="castle-b.svg">
  <defs
     id="defs2" />
  <sodipodi:namedview
     id="base"
     pagecolor="#ffffff"
     bordercolor="#666666"
     borderopacity="1.0"
     inkscape:pageopacity="0.0"
     inkscape:pageshadow="2"
     inkscape:zoom="2.8"
     inkscape:cx="70.511774"
     inkscape:cy="30.918884"
     inkscape:document-units="mm"
     inkscape:current-layer="layer1"
     showgrid="false"
     units="px"
     showguides="true"
     inkscape:guide-bbox="true"
     inkscape:window-width="1366"
     inkscape:window-height="704"
     inkscape:window-x="0"
     inkscape:window-y="202"
     inkscape:window-maximized="1">
    <sodipodi:guide
       position="0,2.6458333"
       orientation="0,1"
       id="guide851"
       inkscape:locked="false"
       inkscape:label=""
       inkscape:color="rgb(0,0,255)" />
    <sodipodi:guide
       position="0,23.8125"
       orientation="0,1"
       id="guide853"
       inkscape:locked="false"
       inkscape:label=""
       inkscape:color="rgb(0,0,255)" />
  </sodipodi:namedview>
  <metadata
     id="metadata5">
    <rdf:RDF>
      <cc:Work
         rdf:about="">
        <dc:format>image/svg+xml</dc:format>
        <dc:type
           rdf:resource="http://purl.org/dc/dcmitype/StillImage" />
        <dc:title></dc:title>
      </cc:Work>
    </rdf:RDF>
  </metadata>
  <g
     inkscape:label="Layer 1"
     inkscape:groupmode="layer"
     id="layer1"
     transform="translate(0,-270.54165)">
    <path
       style="fill:#000000;stroke-width:0.08001374"
       d="m 7.0733146,294.08961 -0.3875373,-0.12449 -0.025691,-0.42163 c -0.02419,-0.39686 -0.011591,-0.42779 0.2152987,-0.52648 0.1325379,-0.0577 0.3475703,-0.12685 0.4778262,-0.15389 0.1302622,-0.027 0.236829,-0.0786 0.236829,-0.11462 0,-0.0361 -0.1065668,-0.10088 -0.236829,-0.14381 -0.7930163,-0.26172 -1.1235077,-1.03617 -0.7025217,-1.6462 0.098754,-0.14317 0.4407253,-0.47765 0.7599368,-0.74342 0.4415869,-0.36765 0.6611482,-0.62824 0.9181456,-1.08968 0.2334781,-0.41923 0.390939,-0.61433 0.5099998,-0.63191 0.2487047,-0.0367 0.2868901,-0.40078 0.047689,-0.45479 -0.2495819,-0.0564 -0.2548025,-0.54285 -0.00663,-0.61087 0.2588079,-0.0708 0.3136491,-0.3422 0.6012284,-2.97416 0.11571,-1.059 0.252698,-3.20634 0.299506,-4.69485 0.03728,-1.1858 0.02831,-1.28694 -0.127945,-1.44244 -0.225243,-0.22421 -0.222936,-0.56082 0.0043,-0.6121 0.116397,-0.0262 0.172245,-0.10131 0.172245,-0.23168 0,-0.17772 -0.02917,-0.19274 -0.370313,-0.19274 -0.4312795,0 -0.5770012,-0.0977 -0.5770012,-0.38656 0,-0.19639 -0.02146,-0.2082 -0.3783234,-0.2082 -0.2655405,0 -0.3939094,-0.035 -0.430597,-0.11762 -0.028764,-0.0646 -0.052261,-0.85188 -0.052261,-1.74936 v -1.63179 l 1.0119057,0.0215 1.0119028,0.0215 0.01159,0.66906 0.01159,0.66907 0.56645,0.0219 0.566451,0.0219 0.02482,-0.691 0.02482,-0.69098 1.959219,-0.0193 1.959221,-0.0193 v 0.70762 0.70764 h 0.599606 0.599599 l 0.02477,-0.68765 0.02477,-0.68765 1.011905,-0.0215 1.011906,-0.0215 v 1.66017 c 0,1.19213 -0.02913,1.68532 -0.103347,1.74936 -0.05683,0.0492 -0.250607,0.0893 -0.430598,0.0893 -0.301004,0 -0.327254,0.0171 -0.327254,0.2082 0,0.2951 -0.146725,0.38655 -0.620061,0.38655 -0.357421,0 -0.413372,0.0194 -0.413372,0.15025 0,0.0882 0.08901,0.18523 0.215298,0.23494 0.267668,0.10539 0.28057,0.34084 0.03351,0.61197 -0.181002,0.19876 -0.181367,0.20905 -0.08154,2.40752 0.106072,2.33652 0.19255,3.52215 0.345425,4.73561 0.233487,1.85347 0.23036,1.84023 0.469533,1.99062 0.282937,0.17793 0.286123,0.42595 0.0082,0.63459 -0.273396,0.20519 -0.274646,0.3699 -0.0032,0.4287 0.15853,0.0343 0.294021,0.18951 0.536861,0.61473 0.241529,0.42293 0.497727,0.71712 0.999159,1.14727 0.694442,0.59574 0.921642,0.92077 0.921642,1.31851 0,0.41331 -0.392325,0.87229 -0.882725,1.03267 -0.343721,0.11247 -0.294097,0.19338 0.215299,0.35149 l 0.452128,0.14037 v 0.44515 0.44516 l -0.430598,0.12405 c -0.385221,0.11098 -1.034056,0.12385 -6.157548,0.12256 -5.1418288,-0.002 -5.7665491,-0.015 -6.1144887,-0.1262 z"
       id="path826"
       inkscape:connector-curvature="0" />
  </g>
</svg>
